<?xml version="1.0" encoding="UTF-8" standalone="no"?>
<svg xmlns="http://www.w3.org/2000/svg" viewBox="0 0 1000.00 191.54" fill="#000000">
  <title>Luz Torres</title>
  <g transform="scale(0.256410) translate(0.000000,747.000000) scale(0.100000,-0.100000)">
  <path d="M17315 6549 c-391 -32 -725 -169 -960 -390 -105 -100 -169 -180 -227
-284 -107 -192 -162 -381 -174 -601 -8 -146 -8 -146 97 -142 74 3 74 3 81 53
21 142 32 197 54 265 120 371 444 665 874 792 275 81 376 93 770 93 340 0 518
-13 540 -40 7 -8 11 -881 12 -2646 l3 -2634 344 -3 c245 -2 348 1 357 9 12 10
14 421 14 2595 0 1692 3 2585 10 2589 5 3 51 -1 102 -10 51 -8 136 -22 188
-31 52 -8 136 -22 185 -30 50 -8 131 -22 180 -30 92 -15 226 -37 325 -54 77
-13 297 -38 411 -46 141 -10 276 15 398 73 77 37 108 58 167 119 40 40 84 93
98 117 49 83 81 205 62 235 -6 9 -429 12 -1909 11 -1046 -1 -1947 -5 -2002
-10z"/>
  <path d="M963 6513 c-63 -4 -63 -4 -63 -2187 0 -2124 1 -2185 20 -2287 23
-125 64 -242 119 -345 49 -90 162 -244 217 -294 307 -282 765 -447 1359 -490
184 -13 722 -13 899 1 423 31 748 97 1106 225 108 38 361 162 465 228 110 70
125 81 125 96 0 18 -81 149 -93 150 -7 0 -84 -43 -145 -82 -47 -29 -224 -115
-317 -153 -250 -104 -473 -165 -798 -220 -334 -56 -829 -58 -1112 -4 -196 38
-445 128 -594 217 -221 130 -398 348 -476 586 -57 174 -55 70 -55 2402 0 1697
-3 2144 -12 2151 -14 8 -538 13 -645 6z"/>
  <path d="M22150 5079 c-180 -12 -421 -57 -590 -110 -215 -67 -387 -147 -562
-261 -202 -132 -382 -295 -512 -463 -294 -379 -438 -789 -440 -1255 -2 -245
36 -449 129 -710 121 -337 365 -661 670 -889 193 -144 292 -202 470 -276 260
-107 473 -162 745 -190 467 -50 943 20 1360 200 316 136 620 370 816 630 213
282 329 530 395 845 31 149 32 165 33 390 0 235 -3 265 -45 465 -35 162 -122
384 -208 530 -77 131 -241 343 -343 443 -51 50 -140 128 -197 172 -308 239
-599 364 -1041 449 -145 28 -487 43 -680 30z m495 -259 c61 -12 122 -29 137
-36 15 -8 34 -14 43 -14 26 0 254 -114 330 -165 168 -113 379 -330 472 -485
65 -108 148 -274 188 -374 130 -330 165 -854 78 -1206 -46 -187 -137 -406
-240 -577 -135 -224 -329 -432 -519 -555 -297 -193 -579 -272 -889 -248 -166
13 -229 27 -380 85 -177 69 -361 183 -513 320 -127 115 -321 394 -410 591
-215 479 -226 1118 -26 1603 216 525 608 903 1072 1036 206 59 448 69 657 25z"/>
  <path d="M27295 5079 c-432 -39 -800 -229 -1084 -559 -33 -38 -65 -80 -72 -92
-7 -13 -28 -43 -46 -68 -19 -25 -41 -60 -48 -77 -8 -18 -21 -33 -29 -33 -12 0
-15 52 -18 353 -2 269 -6 358 -16 369 -11 14 -58 16 -345 17 -191 0 -338 -3
-347 -9 -13 -8 -15 -237 -13 -1980 1 -1084 5 -1975 8 -1980 9 -15 692 -13 701
1 4 7 8 566 10 1243 1 773 6 1253 12 1291 45 263 128 483 256 673 126 188 305
351 486 442 159 80 347 122 550 123 198 1 309 -20 497 -95 57 -22 109 -38 115
-35 26 9 148 261 148 303 0 20 -43 38 -157 68 -174 44 -419 62 -608 45z"/>
  <path d="M30235 5075 c-180 -20 -350 -61 -471 -115 -98 -44 -231 -114 -299
-158 -140 -92 -398 -368 -470 -505 -11 -20 -25 -37 -31 -37 -8 0 -13 104 -17
352 -5 307 -8 354 -22 364 -12 9 -104 11 -348 7 -183 -2 -338 -6 -345 -8 -10
-4 -12 -405 -10 -1982 l3 -1978 355 0 355 0 6 1240 c3 682 9 1256 13 1275 4
19 14 71 22 115 50 269 163 505 344 719 239 283 545 423 931 428 177 2 321
-25 510 -96 53 -20 99 -36 103 -36 9 0 54 75 102 169 60 120 65 136 51 154
-17 21 -236 75 -375 93 -134 16 -252 16 -407 -1z"/>
  <path d="M32725 5079 c-60 -5 -144 -15 -185 -23 -41 -8 -95 -18 -120 -21 -71
-11 -273 -72 -368 -111 -200 -83 -333 -158 -502 -283 -164 -122 -323 -288
-453 -473 -74 -105 -202 -358 -223 -443 -3 -11 -10 -29 -14 -40 -25 -57 -73
-256 -91 -375 -17 -115 -20 -170 -16 -375 4 -280 17 -357 99 -600 154 -460
442 -828 849 -1084 165 -103 455 -226 643 -270 670 -160 1331 -47 1841 316
106 75 194 153 329 292 49 50 49 50 -14 118 -35 37 -70 69 -77 71 -8 2 -58
-39 -112 -91 -55 -52 -134 -122 -178 -155 -160 -121 -434 -253 -618 -296 -38
-9 -88 -21 -110 -26 -123 -28 -388 -39 -518 -19 -182 26 -298 64 -475 152
-411 206 -707 589 -856 1107 -38 133 -49 199 -70 412 -5 49 14 66 52 48 34
-15 152 -49 307 -88 414 -103 723 -140 1082 -128 111 4 228 11 260 17 32 5 85
13 118 19 149 23 237 45 395 98 144 48 322 142 445 236 205 154 342 339 416
560 25 75 31 112 36 221 6 138 -6 268 -33 345 -78 230 -250 439 -487 594 -61
40 -272 144 -347 171 -163 59 -354 99 -575 120 -163 16 -261 17 -430 4z m410
-244 c249 -45 422 -128 548 -265 144 -155 209 -324 211 -550 2 -216 -61 -418
-179 -575 -58 -76 -174 -195 -245 -249 -54 -42 -190 -126 -203 -126 -4 0 -35
-14 -69 -31 -35 -17 -76 -35 -93 -39 -16 -5 -61 -17 -100 -28 -117 -34 -364
-53 -545 -42 -222 13 -357 35 -570 91 -63 17 -158 41 -210 55 -52 13 -103 28
-112 34 -10 5 -26 10 -37 10 -38 0 -43 22 -32 137 9 96 27 196 61 331 6 24 29
93 51 155 169 460 442 791 793 963 158 77 273 111 456 138 63 9 202 4 275 -9z"/>
  <path d="M36335 5074 c-22 -3 -86 -14 -142 -25 -488 -96 -877 -394 -998 -764
-61 -186 -81 -392 -50 -525 51 -217 131 -364 284 -523 194 -201 434 -330 916
-492 192 -65 248 -85 340 -120 39 -15 88 -33 110 -40 190 -64 374 -150 487
-227 153 -104 247 -223 289 -363 18 -59 21 -87 17 -190 -5 -118 -8 -132 -55
-235 -79 -174 -294 -326 -558 -396 -107 -28 -116 -29 -365 -29 -228 0 -266 3
-358 23 -371 82 -736 295 -953 557 -34 42 -68 75 -75 73 -7 -2 -45 -34 -83
-72 -71 -68 -71 -68 -53 -99 29 -52 282 -300 370 -363 196 -140 492 -269 732
-318 244 -50 651 -46 877 8 194 47 413 141 558 238 76 51 243 214 300 294 90
126 158 296 177 444 13 106 4 350 -15 410 -8 25 -22 72 -32 105 -24 78 -95
214 -151 286 -66 86 -208 215 -314 285 -172 113 -444 238 -695 319 -298 96
-710 256 -859 333 -179 93 -295 225 -352 397 -21 65 -21 201 1 285 49 193 223
365 442 439 244 82 571 93 803 27 238 -69 364 -129 530 -255 81 -61 182 -164
242 -247 29 -40 61 -76 70 -79 25 -9 157 93 157 121 2 47 -209 293 -328 384
-211 160 -398 244 -681 307 -99 21 -144 25 -330 28 -118 2 -233 1 -255 -1z"/>
  <path d="M5417 4978 c-17 -13 -18 -69 -14 -1208 3 -1063 5 -1206 20 -1299 67
-408 220 -729 482 -1009 56 -60 213 -184 335 -265 56 -36 237 -125 313 -153
245 -90 497 -134 768 -134 445 0 834 109 1166 327 201 131 404 333 512 510 60
98 60 97 63 -339 3 -393 3 -393 358 -393 l355 0 2 1972 c2 1749 1 1974 -13
1987 -13 13 -63 15 -342 15 -180 -1 -334 -5 -344 -10 -16 -9 -17 -85 -21
-1192 -4 -1257 -3 -1216 -52 -1407 -27 -107 -93 -294 -124 -351 -126 -237
-288 -428 -475 -561 -122 -87 -340 -182 -506 -222 -91 -22 -282 -46 -360 -46
-64 0 -248 28 -325 50 -331 94 -593 275 -781 540 -93 132 -130 197 -174 307
-58 145 -97 280 -120 413 -18 109 -19 172 -21 1277 -1 913 -4 1166 -14 1180
-11 15 -45 17 -341 21 -262 2 -333 1 -347 -10z"/>
  <path d="M10942 4978 c-17 -17 -16 -182 1 -197 10 -7 350 -11 1188 -13 1054
-3 1174 -5 1177 -19 1 -8 -41 -71 -94 -140 -54 -68 -142 -180 -196 -249 -53
-69 -136 -174 -183 -235 -248 -317 -547 -694 -618 -781 -23 -28 -67 -83 -97
-123 -30 -39 -90 -115 -133 -169 -43 -53 -106 -133 -140 -177 -33 -44 -126
-161 -205 -260 -79 -99 -171 -216 -206 -260 -89 -113 -285 -359 -342 -430 -59
-72 -154 -193 -284 -360 -52 -67 -135 -171 -185 -230 -141 -168 -146 -177
-143 -255 3 -65 3 -65 798 -71 984 -7 2831 1 2845 12 17 13 18 184 2 198 -10
8 -368 12 -1353 13 -1217 3 -1339 4 -1342 19 -1 9 8 29 22 45 14 16 80 99 147
184 68 85 175 220 238 299 64 79 127 158 140 175 148 189 226 287 340 431 74
94 167 211 206 260 39 50 161 203 270 341 442 554 502 630 563 708 35 45 85
108 112 141 26 33 168 211 315 395 146 184 305 384 353 443 134 165 130 159
131 229 0 34 -4 67 -10 75 -16 18 -3298 20 -3317 1z"/>
  </g>
</svg>
